<?xml version="1.0" standalone="no"?>
<!DOCTYPE svg PUBLIC "-//W3C//DTD SVG 20010904//EN"
 "http://www.w3.org/TR/2001/REC-SVG-20010904/DTD/svg10.dtd">
<svg version="1.0" xmlns="http://www.w3.org/2000/svg"
 width="640.000000pt" height="640.000000pt" viewBox="0 0 640.000000 640.000000"
 preserveAspectRatio="xMidYMid meet">

<g transform="translate(0.000000,640.000000) scale(0.100000,-0.100000)"
fill="#000000" stroke="none">
<path d="M2875 5364 c-632 -74 -1180 -407 -1528 -930 -156 -235 -266 -514
-320 -809 -28 -159 -30 -524 -4 -680 24 -139 72 -312 119 -430 45 -115 152
-323 208 -405 314 -463 777 -773 1330 -891 125 -26 173 -31 346 -36 222 -6
332 3 514 43 882 194 1539 921 1641 1817 15 130 7 443 -15 567 -75 438 -282
844 -586 1148 -51 50 -97 92 -101 92 -5 0 -9 -102 -9 -227 l0 -226 80 -119
c129 -191 197 -342 255 -563 169 -642 -48 -1340 -550 -1772 -267 -230 -558
-363 -920 -418 -159 -25 -426 -16 -591 19 -357 76 -639 229 -895 485 -266 268
-426 574 -496 952 -24 132 -24 456 0 589 134 727 656 1274 1370 1434 265 60
598 51 845 -23 l32 -10 -2 172 -3 172 -72 16 c-115 27 -260 39 -446 38 -95 -1
-185 -4 -202 -5z"/>
<path d="M4024 5053 c-6 -32 -8 -35 -15 -18 -5 12 -7 -20 -4 -75 2 -60 8 -94
14 -92 6 1 11 -14 11 -35 0 -28 -3 -34 -10 -23 -7 11 -10 4 -10 -25 0 -22 4
-35 8 -28 5 8 11 4 18 -12 9 -19 9 -25 -2 -29 -7 -3 -15 0 -18 7 -2 7 -5 -5
-5 -25 -1 -21 -6 -38 -11 -38 -6 0 -8 12 -5 28 4 21 3 22 -3 7 -5 -11 -6 -42
-4 -70 4 -38 7 -45 13 -30 6 15 8 9 8 -23 1 -39 3 -42 20 -32 11 5 26 7 35 4
23 -9 50 12 51 38 0 16 5 23 18 22 11 -1 17 5 17 20 0 17 2 18 10 6 8 -12 10
-9 10 12 0 15 7 31 16 36 14 8 14 13 3 33 l-13 24 -5 -22 c-6 -21 -7 -21 -27
-4 -19 15 -20 20 -8 42 17 31 17 49 0 49 -8 0 -13 -7 -12 -16 0 -9 -5 -19 -12
-21 -16 -6 -9 42 13 83 17 34 11 45 -10 18 -14 -18 -15 -17 -6 8 7 19 6 29 -3
37 -8 6 -16 34 -20 62 -4 30 -15 58 -27 70 -11 11 -18 27 -15 35 3 8 1 14 -4
14 -5 0 -12 -17 -16 -37z m46 -175 c0 -16 -3 -19 -11 -11 -6 6 -8 16 -5 22 11
17 16 13 16 -11z m10 -63 c0 -8 -8 -11 -20 -8 -11 3 -20 11 -20 18 0 8 8 11
20 8 11 -3 20 -11 20 -18z m27 -167 c-3 -8 -6 -5 -6 6 -1 11 2 17 5 13 3 -3 4
-12 1 -19z"/>
<path d="M3969 5035 c-7 -14 5 -92 12 -80 4 6 4 28 0 50 -4 22 -9 36 -12 30z"/>
<path d="M3930 5018 c0 -9 5 -20 10 -23 13 -8 13 5 0 25 -8 13 -10 13 -10 -2z"/>
<path d="M4103 4961 c3 -36 27 -39 27 -4 0 19 -3 24 -9 14 -7 -11 -10 -11 -15
0 -3 8 -4 3 -3 -10z"/>
<path d="M3940 4932 c0 -13 -8 -32 -19 -43 -15 -16 -17 -27 -10 -57 11 -47 11
-85 1 -78 -10 6 -7 -73 3 -98 6 -13 4 -21 -3 -24 -7 -2 -9 -10 -4 -20 5 -9 8
-37 7 -62 -1 -25 3 -50 8 -57 5 -8 2 -23 -9 -42 -14 -23 -15 -33 -6 -44 7 -8
10 -27 7 -43 -6 -31 -13 -98 -14 -126 -1 -10 -7 -18 -15 -18 -8 0 -17 -6 -19
-12 -3 -7 -6 -2 -6 13 -1 14 5 31 11 37 8 8 9 15 3 20 -6 4 -10 25 -10 47 1
22 -1 44 -4 50 -3 5 -6 21 -8 35 -1 15 -6 37 -11 50 -5 14 -12 -244 -15 -631
-4 -360 -11 -689 -17 -731 -13 -114 -42 -166 -110 -201 -33 -16 -88 -32 -136
-39 l-82 -12 -17 -55 c-35 -111 -97 -214 -189 -309 l-41 -44 205 5 c179 3 217
7 301 29 315 84 461 280 490 658 11 152 9 1060 -2 1060 -5 0 -9 -7 -9 -15 0
-8 -4 -15 -10 -15 -11 0 -12 22 -1 60 7 24 7 24 19 5 9 -16 11 4 8 95 -2 63
-7 123 -11 132 -10 25 -24 13 -18 -14 4 -12 0 -25 -9 -32 -8 -6 -18 -20 -22
-31 -5 -15 -9 -16 -15 -6 -7 11 -9 11 -14 0 -3 -8 -6 -4 -6 9 -1 12 4 22 9 22
17 0 11 48 -7 59 -10 6 -13 11 -7 11 6 0 17 -7 24 -15 16 -20 28 -11 28 20 0
18 -5 25 -14 21 -8 -3 -14 -1 -14 5 0 5 7 12 15 15 8 4 15 10 15 15 0 5 -7 9
-15 9 -8 0 -15 5 -15 10 0 6 5 10 10 10 6 0 10 7 10 15 0 11 -7 10 -35 -6 -19
-12 -39 -26 -43 -33 -4 -6 -16 -18 -26 -26 -18 -14 -19 -13 -13 3 7 20 3 18
-47 -17 -21 -14 -31 -16 -34 -8 -3 10 -7 10 -18 1 -19 -16 -28 -5 -16 18 6 10
7 25 2 34 -5 8 -11 73 -13 144 -3 72 -8 140 -12 152 -6 18 -2 25 19 33 23 8
25 14 20 37 -9 38 -24 53 -24 25z m214 -416 c-7 -18 -44 -28 -44 -12 0 18 10
26 31 26 12 0 16 -5 13 -14z m-60 -32 c23 -9 20 -23 -4 -17 -11 3 -20 9 -20
14 0 11 3 11 24 3z m-134 -44 c0 -11 7 -20 15 -20 8 0 15 -4 15 -10 0 -5 -4
-10 -9 -10 -5 0 -15 -2 -23 -5 -9 -4 -14 5 -15 30 -2 19 2 35 7 35 6 0 10 -9
10 -20z m120 -54 c-6 -6 -25 -11 -43 -11 -24 0 -32 -4 -31 -17 1 -10 -2 -16
-6 -13 -4 2 -12 -7 -18 -20 -7 -14 -15 -25 -19 -25 -5 0 -9 -11 -9 -25 -1 -14
2 -25 7 -25 13 0 10 -31 -5 -59 -13 -23 -13 -22 -15 25 -2 27 -3 66 -4 87 -1
26 2 37 12 37 22 0 51 30 52 54 0 12 3 15 6 9 7 -18 23 -16 23 2 0 8 5 15 10
15 6 0 10 -7 10 -16 0 -8 5 -12 10 -9 6 4 10 14 8 23 -1 10 2 24 7 32 8 12 11
7 13 -19 2 -18 -1 -38 -8 -45z m-21 -63 c0 9 3 17 5 17 2 0 11 2 19 6 11 4 14
-6 11 -51 -2 -30 -6 -60 -9 -65 -3 -6 -1 -10 5 -10 8 0 10 -9 6 -24 -3 -14 -1
-26 5 -28 9 -3 9 -10 0 -26 -14 -27 -31 -29 -31 -3 0 11 -5 23 -10 26 -6 4 -8
15 -5 26 4 11 2 19 -4 19 -6 0 -11 7 -11 15 0 8 3 14 8 14 23 -4 32 4 32 28 0
26 0 26 -22 7 -19 -17 -21 -17 -15 -2 3 10 2 20 -4 23 -5 4 -7 19 -5 33 6 39
8 40 16 7 4 -16 8 -22 9 -12z m148 -5 c-3 -8 -6 -5 -6 6 -1 11 2 17 5 13 3 -3
4 -12 1 -19z m-31 -35 c-10 -10 -19 5 -10 18 6 11 8 11 12 0 2 -7 1 -15 -2
-18z m2 -83 c3 -45 1 -50 -17 -50 -12 0 -21 -4 -21 -10 0 -5 -8 -10 -17 -9
-11 0 -13 3 -5 6 6 2 12 11 12 19 0 8 6 11 15 8 12 -5 15 3 15 40 0 62 14 59
18 -4z m-32 3 c-3 -19 -36 -27 -36 -9 0 7 3 16 7 19 13 13 31 7 29 -10z m-259
-15 c-3 -8 -6 -5 -6 6 -1 11 2 17 5 13 3 -3 4 -12 1 -19z m9 -44 c-3 -7 0 -15
7 -18 7 -2 4 -5 -5 -5 -10 -1 -18 4 -18 10 0 5 -4 8 -9 4 -12 -7 -24 12 -17
24 9 14 48 0 42 -15z m277 -68 c-4 -20 -8 -24 -14 -14 -11 16 -12 62 -2 72 11
11 22 -27 16 -58z m27 44 c0 -5 -2 -10 -4 -10 -3 0 -8 5 -11 10 -3 6 -1 10 4
10 6 0 11 -4 11 -10z m-333 -32 c-3 -8 -6 -5 -6 6 -1 11 2 17 5 13 3 -3 4 -12
1 -19z m253 15 c0 -5 -5 -15 -10 -23 -8 -12 -10 -11 -10 8 0 12 5 22 10 22 6
0 10 -3 10 -7z m-220 -32 c0 -6 -4 -13 -10 -16 -5 -3 -10 1 -10 9 0 9 5 16 10
16 6 0 10 -4 10 -9z m170 -16 c-5 -13 -5 -27 -1 -30 10 -5 3 -43 -9 -50 -4 -2
-5 7 -2 22 3 18 1 24 -7 19 -7 -5 -11 0 -11 13 0 12 5 21 10 21 6 0 10 7 10
15 0 8 4 15 10 15 6 0 6 -9 0 -25z m103 -57 c-3 -18 -10 -41 -15 -50 -9 -20
-38 -25 -38 -7 0 6 -7 4 -15 -5 -8 -8 -15 -20 -15 -26 0 -6 -4 -9 -9 -6 -5 4
-11 0 -14 -6 -5 -16 -12 -10 -21 19 -6 18 -4 22 7 17 9 -3 17 3 21 18 7 22 8
22 15 4 7 -19 8 -19 16 0 5 10 9 25 10 32 0 11 38 38 57 41 4 1 5 -14 1 -31z
m-3 -104 c0 -8 -4 -13 -9 -9 -5 3 -12 -4 -16 -15 -3 -11 -11 -20 -16 -20 -5 0
-3 14 6 30 17 32 35 40 35 14z m-258 -29 c-2 -14 -6 -25 -7 -25 -1 0 -5 11 -7
25 -3 16 -1 25 7 25 8 0 10 -9 7 -25z m248 -45 c0 -5 -2 -10 -4 -10 -3 0 -8 5
-11 10 -3 6 -1 10 4 10 6 0 11 -4 11 -10z m0 -50 c0 -16 -4 -30 -8 -30 -5 0
-7 14 -4 30 2 17 6 30 8 30 2 0 4 -13 4 -30z m0 -50 c0 -5 -2 -10 -4 -10 -3 0
-8 5 -11 10 -3 6 -1 10 4 10 6 0 11 -4 11 -10z"/>
<path d="M4138 3963 c7 -3 16 -2 19 1 4 3 -2 6 -13 5 -11 0 -14 -3 -6 -6z"/>
<path d="M3982 4905 c0 -16 2 -22 5 -12 2 9 2 23 0 30 -3 6 -5 -1 -5 -18z"/>
<path d="M3981 4803 c0 -29 -5 -53 -11 -53 -5 0 -10 -5 -10 -11 0 -5 4 -8 9
-5 5 4 11 0 14 -6 7 -22 12 55 6 92 -6 31 -7 29 -8 -17z"/>
<path d="M3842 4760 c0 -14 2 -19 5 -12 2 6 2 18 0 25 -3 6 -5 1 -5 -13z"/>
<path d="M4152 4740 c0 -14 2 -19 5 -12 2 6 2 18 0 25 -3 6 -5 1 -5 -13z"/>
<path d="M4197 4618 c-2 -7 2 -28 9 -45 7 -18 9 -33 3 -33 -5 0 -9 -7 -9 -16
0 -21 34 -14 38 9 2 10 -2 25 -9 33 -18 22 -20 44 -3 37 8 -3 14 1 14 11 0 19
-36 22 -43 4z"/>
<path d="M3831 4535 c0 -22 6 -49 14 -59 14 -18 15 -17 15 22 0 23 -4 42 -9
42 -5 0 -12 8 -14 18 -3 9 -5 -1 -6 -23z"/>
<path d="M3900 4479 c0 -5 5 -7 10 -4 6 3 10 8 10 11 0 2 -4 4 -10 4 -5 0 -10
-5 -10 -11z"/>
<path d="M2400 4050 c-148 -15 -247 -59 -339 -150 -104 -104 -147 -220 -138
-375 11 -209 132 -367 337 -439 83 -29 91 -30 330 -36 205 -5 250 -8 277 -23
41 -22 63 -54 63 -92 0 -42 -25 -74 -74 -96 -38 -17 -73 -19 -487 -19 l-447 0
-16 -62 c-40 -159 -86 -355 -86 -366 0 -10 107 -12 533 -10 l532 3 80 27 c234
80 375 273 375 515 0 105 -15 172 -55 253 -66 130 -182 228 -328 277 -76 24
-98 27 -309 32 -218 6 -228 7 -250 28 -18 19 -20 27 -12 50 18 52 24 53 505
53 l446 0 16 53 c97 328 107 371 95 379 -16 10 -944 8 -1048 -2z"/>
<path d="M2400 2215 c0 -10 10 -15 30 -15 l30 0 0 -85 c0 -78 2 -85 20 -85 17
0 19 8 22 83 3 81 3 82 31 85 15 2 27 9 27 18 0 11 -17 14 -80 14 -64 0 -80
-3 -80 -15z"/>
<path d="M2600 2130 c0 -92 1 -100 19 -100 16 0 20 8 23 37 4 50 20 51 52 3
16 -25 34 -40 47 -40 20 0 20 0 -2 40 -13 22 -27 40 -33 40 -5 0 0 10 12 23
47 50 13 97 -70 97 l-48 0 0 -100z m94 55 c9 -25 -4 -45 -30 -45 -20 0 -24 5
-24 30 0 25 4 30 24 30 13 0 26 -7 30 -15z"/>
<path d="M2841 2208 c-22 -59 -61 -170 -61 -174 0 -2 9 -4 21 -4 12 0 23 8 26
20 4 16 14 20 48 20 34 0 44 -4 48 -20 3 -12 14 -20 26 -20 12 0 21 1 21 3 -1
1 -16 45 -34 97 -30 85 -36 95 -60 98 -20 3 -28 -2 -35 -20z m59 -95 c0 -7
-11 -13 -25 -13 -28 0 -31 13 -14 57 l11 28 14 -30 c7 -16 13 -36 14 -42z"/>
<path d="M3010 2130 l0 -100 54 0 c89 0 137 54 116 132 -13 47 -52 68 -125 68
l-45 0 0 -100z m118 47 c6 -5 12 -24 12 -41 0 -42 -18 -64 -57 -72 l-33 -6 0
64 c0 36 3 68 6 71 8 8 54 -2 72 -16z"/>
<path d="M3230 2130 l0 -100 60 0 c47 0 60 3 60 15 0 11 -11 15 -40 15 -36 0
-40 3 -40 25 0 22 4 25 35 25 28 0 35 4 35 20 0 16 -7 20 -36 20 -31 0 -35 3
-32 23 2 17 11 23 36 25 20 2 32 9 32 18 0 10 -14 14 -55 14 l-55 0 0 -100z"/>
<path d="M3394 2217 c-3 -8 -4 -52 -2 -98 3 -79 4 -84 26 -87 20 -3 23 0 22
25 -5 67 9 71 45 13 16 -25 33 -40 45 -40 25 0 25 2 -6 51 -23 38 -24 42 -8
53 22 17 21 66 -2 83 -24 17 -113 17 -120 0z m94 -45 c4 -23 -18 -38 -42 -29
-9 4 -12 15 -8 32 6 34 45 32 50 -3z"/>
<path d="M3601 2211 c-12 -12 -21 -27 -21 -34 0 -22 28 -54 60 -67 19 -8 30
-20 30 -33 0 -17 -5 -19 -46 -14 -38 4 -45 2 -42 -12 3 -17 54 -27 94 -17 56
14 51 77 -7 107 -27 13 -39 26 -39 41 0 18 4 20 41 15 34 -4 40 -3 37 11 -5
27 -81 29 -107 3z"/>
<path d="M2290 2105 c0 -11 11 -15 40 -15 29 0 40 4 40 15 0 11 -11 15 -40 15
-29 0 -40 -4 -40 -15z"/>
<path d="M3760 2105 c0 -10 11 -15 35 -15 24 0 35 5 35 15 0 10 -11 15 -35 15
-24 0 -35 -5 -35 -15z"/>
</g>
</svg>
